<svg xmlns="http://www.w3.org/2000/svg" xmlns:xlink="http://www.w3.org/1999/xlink">
		<symbol viewBox="0 0 26 26" id="call">
						<path d="M18.1668 14.3797C17.4951 14.2352 16.9637 14.5471 16.4932 14.8194C16.0114 15.1001 15.0951 15.8434 14.57 15.6531C11.8811 14.546 9.35213 12.1925 8.25739 9.49286C8.06444 8.95647 8.80424 8.0344 9.08283 7.54686C9.35316 7.07492 9.65858 6.53852 9.51928 5.86178C9.3934 5.25366 7.76522 3.18188 7.18947 2.61533C6.80977 2.2411 6.42078 2.03527 6.02147 2.00201C4.5202 1.93756 2.84352 3.94073 2.54945 4.41996C1.81274 5.44181 1.81687 6.80152 2.56183 8.45021C4.35717 12.8786 11.1475 19.5618 15.5925 21.4246C16.4128 21.8082 17.1629 22.0005 17.8366 22.0005C18.496 22.0005 19.0831 21.8165 19.5876 21.4516C19.9684 21.2323 22.0536 19.4724 21.9989 17.9307C21.9659 17.5378 21.7606 17.1448 21.3912 16.7644C20.8289 16.1833 18.7704 14.5065 18.1668 14.3797Z" />
		</symbol>
    <symbol viewBox="0 0 24 24" id="tooltip">
				<g>
						 <path d="M24 12C24 18.6274 18.6274 24 12 24C5.37258 24 0 18.6274 0 12C0 5.37258 5.37258 0 12 0C18.6274 0 24 5.37258 24 12Z" fill="#141024" fill-opacity="0.08"/>
            <path d="M11.5488 7.8695C10.9552 7.8695 10.6584 7.5895 10.6584 7.0295C10.6584 6.4807 10.9552 6.2063 11.5488 6.2063C12.1424 6.2063 12.4392 6.4807 12.4392 7.0295C12.4392 7.5895 12.1424 7.8695 11.5488 7.8695ZM11.5488 18.0839C11.1008 18.0839 10.8768 17.8375 10.8768 17.3447V10.4735C10.8768 9.9919 11.1008 9.7511 11.5488 9.7511C12.008 9.7511 12.2376 9.9919 12.2376 10.4735V17.3447C12.2376 17.8375 12.008 18.0839 11.5488 18.0839Z"/>
					</g>
		</symbol>
   <symbol viewBox="0 0 34 34" id="left">
				<g>
						 <path fill-rule="evenodd" clip-rule="evenodd" d="M0.333172 17C0.333172 26.2 7.8165 33.6666 16.9998 33.6666L17.4661 33.6602C26.4508 33.413 33.6665 26.044 33.6665 17C33.6665 7.81665 26.1998 0.333313 16.9998 0.333313C7.8165 0.333313 0.333172 7.81665 0.333172 17ZM20.2998 10.3333C20.7832 10.8333 20.7832 11.6166 20.2832 12.1L15.3665 17L20.2832 21.9C20.7832 22.3833 20.7832 23.1833 20.2998 23.6666C19.7998 24.1666 19.0165 24.1666 18.5332 23.6666L12.7165 17.8833C12.4832 17.65 12.3498 17.3333 12.3498 17C12.3498 16.6666 12.4832 16.35 12.7165 16.1166L18.5332 10.3333C18.7665 10.0833 19.0832 9.96665 19.3998 9.96665C19.7332 9.96665 20.0498 10.0833 20.2998 10.3333Z"/>
					</g>
		</symbol>
   <symbol viewBox="0 0 34 34" id="right">
				<g>
					  <path fill-rule="evenodd" clip-rule="evenodd" d="M33.6668 17C33.6668 26.2 26.1835 33.6666 17.0002 33.6666L16.5339 33.6602C7.5492 33.413 0.333496 26.044 0.333496 17C0.333496 7.81665 7.80016 0.333313 17.0002 0.333313C26.1835 0.333313 33.6668 7.81665 33.6668 17ZM13.7002 10.3333C13.2168 10.8333 13.2168 11.6166 13.7168 12.1L18.6335 17L13.7168 21.9C13.2168 22.3833 13.2168 23.1833 13.7002 23.6666C14.2002 24.1666 14.9835 24.1666 15.4668 23.6666L21.2835 17.8833C21.5168 17.65 21.6502 17.3333 21.6502 17C21.6502 16.6666 21.5168 16.35 21.2835 16.1166L15.4668 10.3333C15.2335 10.0833 14.9168 9.96665 14.6002 9.96665C14.2668 9.96665 13.9502 10.0833 13.7002 10.3333Z"/>
					</g>
		</symbol>


  <symbol viewBox="0 0 21 20" id="tg">
				<g>
					  <path d="M20.8174 10C20.8174 12.6522 19.7639 15.1957 17.8885 17.0711C16.0131 18.9464 13.4696 20 10.8174 20C8.16528 20 5.62174 18.9464 3.74638 17.0711C1.87101 15.1957 0.817444 12.6522 0.817444 10C0.817444 7.34784 1.87101 4.8043 3.74638 2.92893C5.62174 1.05357 8.16528 0 10.8174 0C13.4696 0 16.0131 1.05357 17.8885 2.92893C19.7639 4.8043 20.8174 7.34784 20.8174 10ZM11.1762 7.3825C10.2037 7.7875 8.25869 8.625 5.34369 9.895C4.87119 10.0825 4.62244 10.2675 4.59994 10.4475C4.56244 10.7512 4.94369 10.8713 5.46244 11.035L5.68119 11.1038C6.19119 11.27 6.87869 11.4637 7.23494 11.4713C7.55994 11.4788 7.92119 11.3463 8.31994 11.0713C11.0437 9.2325 12.4499 8.30375 12.5374 8.28375C12.5999 8.26875 12.6874 8.25125 12.7449 8.30375C12.8037 8.355 12.7974 8.45375 12.7912 8.48C12.7537 8.64125 11.2574 10.0312 10.4837 10.7512C10.2424 10.9762 10.0712 11.135 10.0362 11.1713C9.95912 11.25 9.88078 11.3275 9.80119 11.4038C9.32619 11.8612 8.97119 12.2038 9.81994 12.7638C10.2287 13.0338 10.5562 13.255 10.8824 13.4775C11.2374 13.72 11.5924 13.9613 12.0524 14.2638C12.1687 14.3387 12.2812 14.42 12.3899 14.4975C12.8037 14.7925 13.1774 15.0575 13.6362 15.015C13.9037 14.99 14.1799 14.74 14.3199 13.99C14.6512 12.2188 15.3024 8.3825 15.4524 6.80125C15.4616 6.6698 15.4561 6.53775 15.4362 6.4075C15.4244 6.3024 15.3736 6.20557 15.2937 6.13625C15.18 6.05774 15.0444 6.01706 14.9062 6.02C14.5312 6.02625 13.9524 6.2275 11.1762 7.3825Z"></path>
					</g>
		</symbol>
 <symbol viewBox="0 0 21 20" id="mail">
				<g>
					  <path d="M0.879944 4.44375C1.00597 3.89155 1.31576 3.39852 1.7586 3.04539C2.20143 2.69225 2.75105 2.49996 3.31744 2.5H18.3174C18.8838 2.49996 19.4335 2.69225 19.8763 3.04539C20.3191 3.39852 20.6289 3.89155 20.7549 4.44375L10.8174 10.5175L0.879944 4.44375ZM0.817444 5.87125V14.7512L8.07119 10.3038L0.817444 5.87125ZM9.26869 11.0375L1.05619 16.0713C1.2591 16.4991 1.57935 16.8605 1.97967 17.1135C2.37999 17.3664 2.84391 17.5005 3.31744 17.5H18.3174C18.7909 17.5001 19.2546 17.3658 19.6547 17.1126C20.0548 16.8595 20.3748 16.4979 20.5774 16.07L12.3649 11.0363L10.8174 11.9825L9.26869 11.0363V11.0375ZM13.5637 10.305L20.8174 14.7512V5.87125L13.5637 10.3038V10.305Z"></path>
					</g>
		</symbol>
 <symbol viewBox="0 0 21 20" id="github">
				<g>
					  <path d="M10.8174 0C5.29244 0 0.817444 4.475 0.817444 10C0.817444 14.425 3.67994 18.1625 7.65494 19.4875C8.15494 19.575 8.34244 19.275 8.34244 19.0125C8.34244 18.775 8.32994 17.9875 8.32994 17.15C5.81744 17.6125 5.16744 16.5375 4.96744 15.975C4.85494 15.6875 4.36744 14.8 3.94244 14.5625C3.59244 14.375 3.09244 13.9125 3.92994 13.9C4.71744 13.8875 5.27994 14.625 5.46744 14.925C6.36744 16.4375 7.80494 16.0125 8.37994 15.75C8.46744 15.1 8.72994 14.6625 9.01744 14.4125C6.79244 14.1625 4.46744 13.3 4.46744 9.475C4.46744 8.3875 4.85494 7.4875 5.49244 6.7875C5.39244 6.5375 5.04244 5.5125 5.59244 4.1375C5.59244 4.1375 6.42994 3.875 8.34244 5.1625C9.14244 4.9375 9.99244 4.825 10.8424 4.825C11.6924 4.825 12.5424 4.9375 13.3424 5.1625C15.2549 3.8625 16.0924 4.1375 16.0924 4.1375C16.6424 5.5125 16.2924 6.5375 16.1924 6.7875C16.8299 7.4875 17.2174 8.375 17.2174 9.475C17.2174 13.3125 14.8799 14.1625 12.6549 14.4125C13.0174 14.725 13.3299 15.325 13.3299 16.2625C13.3299 17.6 13.3174 18.675 13.3174 19.0125C13.3174 19.275 13.5049 19.5875 14.0049 19.4875C15.9902 18.8175 17.7154 17.5417 18.9375 15.8397C20.1596 14.1377 20.8171 12.0953 20.8174 10C20.8174 4.475 16.3424 0 10.8174 0Z"></path>
					</g>
		</symbol>
 <symbol viewBox="0 0 16 16" id="open">
				<g>
					  <path fill-rule="evenodd" d="M8.636 3.5a.5.5 0 0 0-.5-.5H1.5A1.5 1.5 0 0 0 0 4.5v10A1.5 1.5 0 0 0 1.5 16h10a1.5 1.5 0 0 0 1.5-1.5V7.864a.5.5 0 0 0-1 0V14.5a.5.5 0 0 1-.5.5h-10a.5.5 0 0 1-.5-.5v-10a.5.5 0 0 1 .5-.5h6.636a.5.5 0 0 0 .5-.5z"></path>
            <path fill-rule="evenodd" d="M16 .5a.5.5 0 0 0-.5-.5h-5a.5.5 0 0 0 0 1h3.793L6.146 9.146a.5.5 0 1 0 .708.708L15 1.707V5.5a.5.5 0 0 0 1 0v-5z"></path>
					</g>
		</symbol>













	</svg>




